# xmcd
# 
# Track frame offsets:
#     150
#     16741
#     29319
#     47469
#     60999
#     79510
#     92554
#     105498
#     117933
#     133357
#     147186
#     160990
#     171873
#     192621
#     203374
# 
# Disc length: 2967
# 
# Revision: 1
# Processed by: cddbd v1.5.2PL0 Copyright (c) Steve Scherf et al.
# Submitted via: fre:ac v1.1beta1pre5
# 
DISCID=bb0b950f
DTITLE=Various Artist - The Ultimate Country Collection - CD05
DYEAR=2009
DGENRE=Country
TTITLE0=Alabama - Can't Keep A Good Man Down
TTITLE1=Aaron Tippin - There Ain't Nothin' Wrong With The Radio
TTITLE2=Billy Swan - I Can Help
TTITLE3=Brooks and Dunn - Brand New Man
TTITLE4=Diamond Rio - How Your Love Makes Me Feel
TTITLE5=Johnny Cash - Man In Black
TTITLE6=Jim Reeves - Distant Drums
TTITLE7=Lorrie Morgan - What Part Of No
TTITLE8=Merle Haggard - Twinkle, Twinkle Little Star
TTITLE9=Ricochet - Daddy's Money
TTITLE10=Goerge Jones and Tammy Wynette - Golden Ring
TTITLE11=Tanya Tucker - Would You Lay With Me (In A Field Of Stone)
TTITLE12=the Highwaymen - Desperadoes Waiting For A Train
TTITLE13=Hank Locklin - Please Help Me I'm Falling
TTITLE14=Kris Kristofferson - Me And Bobby McGee
EXTD=
EXTT0=
EXTT1=
EXTT2=
EXTT3=
EXTT4=
EXTT5=
EXTT6=
EXTT7=
EXTT8=
EXTT9=
EXTT10=
EXTT11=
EXTT12=
EXTT13=
EXTT14=
PLAYORDER=
